<?xml version="1.0" encoding="iso-8859-1"?>
<!-- Generator: Adobe Illustrator 21.0.2, SVG Export Plug-In . SVG Version: 6.00 Build 0)  -->
<svg xmlns="http://www.w3.org/2000/svg" xmlns:xlink="http://www.w3.org/1999/xlink" version="1.1" id="Layer_1" x="0px" y="0px" viewBox="0 0 40 40" style="enable-background:new 0 0 40 40;" xml:space="preserve">
<g>
	<path style="fill:#DFF0FE;" d="M25.5,38.5v-8h-11v8h-5v-8h-8v-5h8v-11h-8v-5h8v-8h5v8h11v-8h5v8h8v5h-8v11h8v5h-8v8H25.5z    M14.5,25.5h11v-11h-11V25.5z"/>
	<path style="fill:#4788C7;" d="M30,2v7v1h1h7v4h-7h-1v1v10v1h1h7v4h-7h-1v1v7h-4v-7v-1h-1H15h-1v1v7h-4v-7v-1H9H2v-4h7h1v-1V15v-1   H9H2v-4h7h1V9V2h4v7v1h1h10h1V9V2H30 M14,26h1h10h1v-1V15v-1h-1H15h-1v1v10V26 M31,1h-6v8H15V1H9v8H1v6h8v10H1v6h8v8h6v-8h10v8h6   v-8h8v-6h-8V15h8V9h-8V1L31,1z M15,25V15h10v10H15L15,25z"/>
</g>
</svg>
