<?xml version="1.0" encoding="iso-8859-1"?>
<!-- Generator: Adobe Illustrator 21.0.2, SVG Export Plug-In . SVG Version: 6.00 Build 0)  -->
<svg version="1.1" id="Layer_1" xmlns="http://www.w3.org/2000/svg" xmlns:xlink="http://www.w3.org/1999/xlink" x="0px" y="0px"
	 viewBox="0 0 40 40" style="enable-background:new 0 0 40 40;" xml:space="preserve">
<path style="fill:#B6DCFE;" d="M14.93,32.5c-0.478,0-0.927-0.186-1.265-0.524L2.024,20.336c-0.697-0.698-0.697-1.833,0-2.53
	L17.739,2.133c0.408-0.408,0.952-0.633,1.53-0.633H30c1.379,0,2.5,1.122,2.5,2.5v10.77c0,0.599-0.243,1.184-0.667,1.607
	L16.194,31.976C15.856,32.314,15.407,32.5,14.93,32.5z M28,4.5c-0.827,0-1.5,0.673-1.5,1.5s0.673,1.5,1.5,1.5s1.5-0.673,1.5-1.5
	S28.827,4.5,28,4.5z"/>
<path style="fill:#4788C7;" d="M30,2c1.103,0,2,0.897,2,2v10.77c0,0.474-0.185,0.918-0.52,1.253l-15.639,15.6
	C15.597,31.866,15.274,32,14.929,32c-0.344,0-0.668-0.134-0.911-0.377l-11.64-11.64c-0.502-0.502-0.502-1.32-0.001-1.822
	L18.092,2.487C18.406,2.173,18.824,2,19.269,2H30 M28,8c1.103,0,2-0.897,2-2s-0.897-2-2-2s-2,0.897-2,2S26.897,8,28,8 M30,1H19.269
	c-0.706,0-1.383,0.28-1.883,0.779L1.671,17.453c-0.894,0.894-0.894,2.343,0,3.237l11.64,11.64c0.447,0.447,1.033,0.67,1.618,0.67
	c0.586,0,1.172-0.223,1.618-0.67l15.639-15.599C32.707,16.211,33,15.506,33,14.77V4C33,2.343,31.657,1,30,1L30,1z M28,7
	c-0.552,0-1-0.448-1-1s0.448-1,1-1s1,0.448,1,1S28.552,7,28,7L28,7z"/>
<path style="fill:#DFF0FE;" d="M20.93,38.5c-0.478,0-0.927-0.186-1.265-0.524L8.024,26.336c-0.697-0.698-0.697-1.833,0-2.53
	L23.739,8.133c0.408-0.408,0.952-0.633,1.53-0.633H36c1.379,0,2.5,1.122,2.5,2.5v10.77c0,0.599-0.243,1.184-0.667,1.607
	L22.194,37.976C21.856,38.314,21.407,38.5,20.93,38.5z M34,10.5c-0.827,0-1.5,0.673-1.5,1.5s0.673,1.5,1.5,1.5s1.5-0.673,1.5-1.5
	S34.827,10.5,34,10.5z"/>
<path style="fill:#4788C7;" d="M36,8c1.103,0,2,0.897,2,2v10.77c0,0.474-0.185,0.918-0.52,1.253l-15.639,15.6
	C21.597,37.866,21.274,38,20.929,38c-0.344,0-0.668-0.134-0.911-0.377l-11.64-11.64c-0.502-0.502-0.502-1.32-0.001-1.822
	L24.092,8.487C24.406,8.173,24.824,8,25.269,8H36 M34,14c1.103,0,2-0.897,2-2s-0.897-2-2-2s-2,0.897-2,2S32.897,14,34,14 M36,7
	H25.269c-0.706,0-1.383,0.28-1.883,0.779L7.671,23.453c-0.894,0.894-0.894,2.343,0,3.237l11.64,11.64
	c0.447,0.447,1.033,0.67,1.618,0.67c0.586,0,1.172-0.223,1.618-0.67l15.639-15.599C38.707,22.211,39,21.506,39,20.77V10
	C39,8.343,37.657,7,36,7L36,7z M34,13c-0.552,0-1-0.448-1-1s0.448-1,1-1s1,0.448,1,1S34.552,13,34,13L34,13z"/>
</svg>
